PathFileType	4	(X/Y/Z)	 s07c0001.trc
DataRate	CameraRate	NumFrames	NumMarkers	Units	OrigDataRate	OrigDataStartFrame	OrigNumFrames
200	200	6	49	mm	200	1	2000
Frame#	Time	racr			lacr			c7			jug			rlel			rdr			llel			ldr			s2			lic			ric			lasi			rasi			rpsi			lpsi			rgt			lgt			rth1			rth2			rth3			rth4			rlfc			rmfc			rsh1			rsh2			rsh3			rsh4			rlmal			rmmal			rcal			rtoe			rmt5			rmt1			lth1			lth2			lth4			lth3			llfc			lmfc			lsh1			lsh2			lsh3			lsh4			llmal			lmmal			lcal			ltoe			lmt1			lmt5			
		X1	Y1	Z1	X2	Y2	Z2	X3	Y3	Z3	X4	Y4	Z4	X5	Y5	Z5	X6	Y6	Z6	X7	Y7	Z7	X8	Y8	Z8	X9	Y9	Z9	X10	Y10	Z10	X11	Y11	Z11	X12	Y12	Z12	X13	Y13	Z13	X14	Y14	Z14	X15	Y15	Z15	X16	Y16	Z16	X17	Y17	Z17	X18	Y18	Z18	X19	Y19	Z19	X20	Y20	Z20	X21	Y21	Z21	X22	Y22	Z22	X23	Y23	Z23	X24	Y24	Z24	X25	Y25	Z25	X26	Y26	Z26	X27	Y27	Z27	X28	Y28	Z28	X29	Y29	Z29	X30	Y30	Z30	X31	Y31	Z31	X32	Y32	Z32	X33	Y33	Z33	X34	Y34	Z34	X35	Y35	Z35	X36	Y36	Z36	X37	Y37	Z37	X38	Y38	Z38	X39	Y39	Z39	X40	Y40	Z40	X41	Y41	Z41	X42	Y42	Z42	X43	Y43	Z43	X44	Y44	Z44	X45	Y45	Z45	X46	Y46	Z46	X47	Y47	Z47	X48	Y48	Z48	X49	Y49	Z49	
1	0.0050	186.482825	1568.680611	561.522162	217.900929	1568.881907	192.418795	156.703474	1608.336788	373.006864	277.959246	1516.661552	384.377076	250.677239	1222.696794	692.696167	398.230212	984.448806	806.629280	293.250877	1215.155024	95.484856	448.229168	976.900184	-7.100435	121.510520	1061.609325	365.174890	265.427668	1144.065502	229.707958	253.284422	1131.881150	533.950015	332.369904	1075.449224	263.382633	301.514807	1072.699986	526.327361	132.042272	1095.927489	422.289147	150.530852	1103.251054	310.075096	216.938122	975.782445	562.030091	250.513574	973.743130	212.079455	225.080630	847.059822	564.503802	247.488458	761.986398	557.023661	227.037187	679.120954	547.407718	297.471264	765.440215	554.177291	224.698849	537.695033	512.809579	233.757174	526.982163	417.397135	184.032848	400.371079	529.597092	200.781450	314.028256	509.699945	172.018200	232.646823	503.858624	224.034304	318.867893	478.000017	159.475423	91.658928	488.731397	200.218202	105.532374	410.200590	113.962073	41.319326	446.999142	395.630397	85.640033	505.152078	311.176573	35.988069	556.847764	328.377552	43.642784	449.416018	259.411329	856.252291	198.474723	281.789484	771.244564	204.144089	315.936659	773.024179	217.153039	257.538635	685.951111	213.145015	251.497387	531.284281	241.110120	245.216748	515.137850	328.800111	215.886697	396.490120	215.997134	231.606207	313.942355	236.900449	204.123940	227.405591	232.967766	241.381288	317.349348	277.181909	191.019065	91.255004	243.465939	225.372317	111.668107	324.722163	141.696235	37.484472	279.944890	423.373831	92.460992	249.194095	359.494702	47.855607	297.492145	345.559523	52.513038	192.105399	
2	0.0100	186.476847	1568.676154	561.527502	217.933966	1568.882227	192.437208	156.720676	1608.326247	373.028462	277.978084	1516.657592	384.409133	250.682198	1222.698024	692.700318	398.229077	984.407561	806.606096	293.274260	1215.163289	95.503571	448.262641	976.909146	-7.079580	121.525766	1061.597088	365.181896	265.449599	1144.068266	229.721607	253.313256	1131.865708	533.946287	332.406928	1075.447963	263.374613	301.523418	1072.689575	526.347991	132.087416	1095.890270	422.307065	150.547649	1103.251018	310.091064	216.953776	975.784391	562.040313	250.528437	973.752746	212.052720	225.086601	847.055916	564.497937	247.539624	762.011742	557.025681	227.055434	679.121287	547.409913	297.464108	765.465794	554.179044	224.717396	537.680566	512.798556	233.767397	526.990484	417.393940	184.049970	400.352031	529.591564	200.789582	314.007615	509.705751	172.019910	232.646216	503.858666	224.063123	318.866404	477.986065	159.480078	91.652900	488.731814	200.229360	105.531155	410.198562	113.965639	41.307735	447.005434	395.624883	85.642380	505.158605	311.183734	35.954042	556.840351	328.392342	43.625742	449.441624	259.448512	856.250458	198.478196	281.820750	771.241065	204.139614	315.964263	773.032282	217.154573	257.559444	685.960474	213.145824	251.522255	531.296958	241.121368	245.232109	515.128960	328.794374	215.890650	396.496575	215.993893	231.636017	313.929173	236.896466	204.148445	227.401317	232.978370	241.398824	317.341020	277.175507	191.022441	91.251519	243.474060	225.392172	111.666428	324.739912	141.688625	37.486950	279.949268	423.369801	92.463966	249.202219	359.496454	47.854492	297.498622	345.588393	52.496252	192.119023	
3	0.0150	186.478157	1568.652185	561.558319	217.936840	1568.881605	192.479821	156.722709	1608.320502	373.042592	277.971445	1516.650835	384.432206	250.669708	1222.667651	692.710850	398.221054	984.388909	806.616027	293.287406	1215.162705	95.526747	448.280473	976.912237	-7.056808	121.549783	1061.586074	365.183741	265.483165	1144.056428	229.710188	253.309637	1131.871422	533.952346	332.405211	1075.454505	263.375202	301.541354	1072.692672	526.330706	132.114746	1095.885041	422.311021	150.567160	1103.252319	310.092919	216.979687	975.784110	562.046640	250.549396	973.738544	212.053628	225.117192	847.053807	564.510805	247.555207	762.008880	557.027812	227.081249	679.115872	547.390564	297.525298	765.453013	554.180474	224.737691	537.681196	512.799561	233.770502	526.986089	417.371789	184.057784	400.360705	529.588656	200.814425	314.016046	509.690518	172.021310	232.639934	503.864806	224.067734	318.873556	477.993829	159.494939	91.658480	488.732308	200.220969	105.539838	410.185098	113.959532	41.302645	446.988364	395.618126	85.637814	505.150967	311.154347	35.959577	556.857514	328.379810	43.639663	449.442092	259.452630	856.260716	198.462525	281.842320	771.235932	204.151686	315.976800	773.029764	217.156719	257.581723	685.951615	213.161285	251.523938	531.287395	241.110913	245.236722	515.121190	328.795532	215.906854	396.480795	216.000163	231.635632	313.931509	236.912947	204.147513	227.405459	232.974882	241.404779	317.343010	277.159131	191.008569	91.253238	243.464492	225.386426	111.670842	324.732246	141.674938	37.498981	279.937396	423.369327	92.451474	249.203947	359.471142	47.841469	297.488697	345.575645	52.501855	192.121054	
4	0.0200	186.492968	1568.629631	561.573175	217.948334	1568.894911	192.492158	156.740047	1608.307830	373.034728	277.989127	1516.630284	384.440713	249.831606	1222.991608	692.812061	398.216631	984.320795	806.590003	293.500585	1215.398841	95.843447	448.299480	976.907478	-7.035918	121.876202	1061.490959	365.223775	265.479690	1144.059855	229.717112	253.656769	1131.665909	533.862668	332.441054	1075.450836	263.375464	301.556010	1072.685497	526.341965	134.467799	1094.971610	422.016438	150.566536	1103.244407	310.114478	217.236739	975.624869	562.132529	250.550486	973.750949	212.066272	225.130435	847.046562	564.505561	247.718503	762.130121	556.836221	227.080861	679.118046	547.407500	288.776981	766.940497	553.049848	224.751524	537.677555	512.771134	233.802083	526.987134	417.389328	184.074289	400.340500	529.577484	200.814316	314.006230	509.685007	172.020310	232.648263	503.866765	223.937028	317.744370	477.202575	159.130656	91.781455	488.735757	200.208181	105.538145	410.175543	113.959532	41.302645	446.988364	395.615722	85.642796	505.146403	311.170591	35.966222	556.848517	328.394669	43.644808	449.430872	259.661704	856.207679	198.474109	284.081842	768.871671	211.774403	316.201840	772.097396	219.940783	257.590911	685.957597	213.147480	251.506058	531.222466	241.055630	245.233706	515.130066	328.796833	215.864109	396.402535	215.919005	231.632801	313.942645	236.910918	204.035899	227.148634	232.786709	241.621070	317.146188	277.271382	191.024156	91.251168	243.462047	225.386872	111.670130	324.731873	141.677517	37.499835	279.942311	423.368117	92.291684	249.078052	358.901343	47.066565	297.008880	345.560563	52.501471	192.113822	
5	0.0250	186.338221	1568.772053	561.885053	217.760109	1568.817803	193.239562	156.717000	1608.102621	372.975303	277.491589	1516.846842	386.200057	249.847265	1222.978144	692.825284	398.259746	984.423937	806.602976	293.523490	1215.405999	95.872737	448.208136	977.031262	-6.728837	121.983761	1061.451195	365.233997	265.139048	1144.496852	229.721936	253.321607	1132.002873	534.015926	332.390745	1075.388685	263.553744	301.458837	1072.895810	526.366035	134.500335	1094.972250	422.016547	150.241357	1103.551270	310.166555	216.867121	976.055547	562.019892	250.615808	973.793775	212.261968	225.005856	847.222392	564.435234	247.458911	762.142400	556.855516	226.859025	679.390025	547.483877	284.804273	765.937312	551.439921	224.578582	537.952714	512.913032	233.767981	527.130569	417.480045	183.962683	400.450140	529.733686	200.648517	314.034260	509.895300	171.849174	232.816953	503.987506	223.949636	317.728246	477.412053	159.059345	91.926607	488.658906	200.272889	105.608888	410.224067	113.943565	41.449409	447.047622	395.474310	85.879940	505.330017	311.094815	36.039185	557.012659	328.822882	37.085986	461.154338	259.365834	856.338334	198.815069	283.222888	767.906568	213.844052	316.220865	772.012451	219.921865	257.590068	686.252208	213.220534	251.349988	531.434653	241.073165	244.632371	515.022920	328.628398	215.701985	396.587031	215.793207	231.503995	314.284194	237.145239	210.282030	224.910495	237.366940	241.693357	317.378804	277.052200	190.847474	91.478121	243.644766	225.280546	111.809610	324.816389	141.581487	37.826633	280.107564	423.300028	92.612042	249.221293	359.034817	47.292838	297.155154	345.459021	52.751160	192.088231	
6	0.0300	186.415994	1568.846138	561.814609	217.842947	1568.459860	193.129939	156.765036	1608.249037	373.043794	277.534193	1516.842374	386.166454	249.839576	1222.966521	692.807033	398.226775	984.409572	806.704152	293.553875	1215.415810	95.881488	448.266038	977.052766	-6.822406	122.047220	1061.453283	365.260130	265.232679	1144.399582	229.648524	253.439457	1131.976577	534.078797	337.342794	1073.562712	271.403776	301.511437	1072.884056	526.400071	134.505781	1094.974483	422.016077	150.482266	1103.420145	310.176225	216.936163	976.027751	562.099304	250.597576	973.801612	212.251788	225.097311	847.206428	564.486187	247.657294	762.150605	556.893826	226.958533	679.351077	547.544007	283.745843	764.429116	550.206060	224.660486	537.912102	512.923663	233.720756	527.116674	417.438420	184.001839	400.501845	529.718303	200.716483	314.149887	509.865798	171.840610	232.849703	503.952942	223.963323	317.821694	477.376966	159.056686	91.925196	488.640628	200.285601	105.623081	410.180411	113.962769	41.383995	447.014123	395.507016	85.810710	505.266702	311.077018	36.053981	557.005441	328.944376	36.640938	461.660075	259.380632	856.312022	198.771419	283.995419	767.578938	214.273620	316.245529	772.043859	219.932043	257.620422	686.184892	213.166801	259.902605	529.371678	247.108363	244.670164	515.075303	328.663476	215.769900	396.565015	215.795153	231.605380	314.223293	237.071646	211.705965	225.394023	239.315384	241.659253	317.304150	277.236962	190.905921	91.429462	243.618018	225.274377	111.822830	324.802683	141.663799	37.634921	280.013490	423.353144	92.498531	249.151222	359.092436	47.368397	297.223929	345.490549	52.750104	192.043770	
